<?xml version="1.0" encoding="UTF-8" standalone="no"?>
<!DOCTYPE svg PUBLIC "-//W3C//DTD SVG 1.1//EN"
 "http://www.w3.org/Graphics/SVG/1.1/DTD/svg11.dtd">
<!-- Generated by graphviz version 2.38.0 (20140413.2041)
 -->
<!-- Title: G Pages: 1 -->
<svg width="1162pt" height="861pt"
 viewBox="0.00 0.00 1161.79 861.00" xmlns="http://www.w3.org/2000/svg" xmlns:xlink="http://www.w3.org/1999/xlink">
<g id="graph0" class="graph" transform="scale(1 1) rotate(0) translate(4 857)">
<title>G</title>
<polygon fill="white" stroke="none" points="-4,4 -4,-857 1157.79,-857 1157.79,4 -4,4"/>
<g id="clust1" class="cluster"><title>cluster1</title>
<polygon fill="none" stroke="black" points="867.792,-284 867.792,-569 1145.79,-569 1145.79,-284 867.792,-284"/>
</g>
<!-- main -->
<g id="node1" class="node"><title>main</title>
<ellipse fill="none" stroke="black" cx="353.792" cy="-835" rx="28.6953" ry="18"/>
<text text-anchor="middle" x="353.792" y="-831.3" font-family="Times,serif" font-size="14.00">main</text>
</g>
<!-- aeMain -->
<g id="node2" class="node"><title>aeMain</title>
<ellipse fill="none" stroke="black" cx="353.792" cy="-762" rx="37.8943" ry="18"/>
<text text-anchor="middle" x="353.792" y="-758.3" font-family="Times,serif" font-size="14.00">aeMain</text>
</g>
<!-- main&#45;&gt;aeMain -->
<g id="edge1" class="edge"><title>main&#45;&gt;aeMain</title>
<path fill="none" stroke="black" d="M353.792,-816.813C353.792,-808.789 353.792,-799.047 353.792,-790.069"/>
<polygon fill="black" stroke="black" points="357.292,-790.029 353.792,-780.029 350.292,-790.029 357.292,-790.029"/>
</g>
<!-- aeProcessEvents -->
<g id="node3" class="node"><title>aeProcessEvents</title>
<ellipse fill="none" stroke="black" cx="254.792" cy="-689" rx="69.5877" ry="18"/>
<text text-anchor="middle" x="254.792" y="-685.3" font-family="Times,serif" font-size="14.00">aeProcessEvents</text>
</g>
<!-- aeMain&#45;&gt;aeProcessEvents -->
<g id="edge2" class="edge"><title>aeMain&#45;&gt;aeProcessEvents</title>
<path fill="none" stroke="black" d="M333.758,-746.632C319.933,-736.717 301.287,-723.345 285.585,-712.084"/>
<polygon fill="black" stroke="black" points="287.381,-709.064 277.214,-706.08 283.301,-714.753 287.381,-709.064"/>
</g>
<!-- beforeSleep -->
<g id="node13" class="node"><title>beforeSleep</title>
<ellipse fill="none" stroke="black" cx="418.792" cy="-689" rx="52.7911" ry="18"/>
<text text-anchor="middle" x="418.792" y="-685.3" font-family="Times,serif" font-size="14.00">beforeSleep</text>
</g>
<!-- aeMain&#45;&gt;beforeSleep -->
<g id="edge12" class="edge"><title>aeMain&#45;&gt;beforeSleep</title>
<path fill="none" stroke="black" d="M368.218,-745.243C376.563,-736.127 387.24,-724.465 396.631,-714.208"/>
<polygon fill="black" stroke="black" points="399.33,-716.442 403.501,-706.702 394.167,-711.715 399.33,-716.442"/>
</g>
<!-- readQueryFromClient -->
<g id="node4" class="node"><title>readQueryFromClient</title>
<ellipse fill="none" stroke="black" cx="181.792" cy="-616" rx="89.0842" ry="18"/>
<text text-anchor="middle" x="181.792" y="-612.3" font-family="Times,serif" font-size="14.00">readQueryFromClient</text>
</g>
<!-- aeProcessEvents&#45;&gt;readQueryFromClient -->
<g id="edge3" class="edge"><title>aeProcessEvents&#45;&gt;readQueryFromClient</title>
<path fill="none" stroke="black" d="M237.861,-671.533C228.507,-662.435 216.718,-650.969 206.367,-640.901"/>
<polygon fill="black" stroke="black" points="208.748,-638.334 199.139,-633.871 203.867,-643.352 208.748,-638.334"/>
</g>
<!-- processInputBuffer -->
<g id="node5" class="node"><title>processInputBuffer</title>
<ellipse fill="none" stroke="black" cx="181.792" cy="-543" rx="78.7863" ry="18"/>
<text text-anchor="middle" x="181.792" y="-539.3" font-family="Times,serif" font-size="14.00">processInputBuffer</text>
</g>
<!-- readQueryFromClient&#45;&gt;processInputBuffer -->
<g id="edge4" class="edge"><title>readQueryFromClient&#45;&gt;processInputBuffer</title>
<path fill="none" stroke="black" d="M181.792,-597.813C181.792,-589.789 181.792,-580.047 181.792,-571.069"/>
<polygon fill="black" stroke="black" points="185.292,-571.029 181.792,-561.029 178.292,-571.029 185.292,-571.029"/>
</g>
<!-- processCommand -->
<g id="node6" class="node"><title>processCommand</title>
<ellipse fill="none" stroke="black" cx="181.792" cy="-470" rx="74.9875" ry="18"/>
<text text-anchor="middle" x="181.792" y="-466.3" font-family="Times,serif" font-size="14.00">processCommand</text>
</g>
<!-- processInputBuffer&#45;&gt;processCommand -->
<g id="edge5" class="edge"><title>processInputBuffer&#45;&gt;processCommand</title>
<path fill="none" stroke="black" d="M181.792,-524.813C181.792,-516.789 181.792,-507.047 181.792,-498.069"/>
<polygon fill="black" stroke="black" points="185.292,-498.029 181.792,-488.029 178.292,-498.029 185.292,-498.029"/>
</g>
<!-- call -->
<g id="node7" class="node"><title>call</title>
<ellipse fill="none" stroke="black" cx="181.792" cy="-397" rx="27" ry="18"/>
<text text-anchor="middle" x="181.792" y="-393.3" font-family="Times,serif" font-size="14.00">call</text>
</g>
<!-- processCommand&#45;&gt;call -->
<g id="edge6" class="edge"><title>processCommand&#45;&gt;call</title>
<path fill="none" stroke="black" d="M181.792,-451.813C181.792,-443.789 181.792,-434.047 181.792,-425.069"/>
<polygon fill="black" stroke="black" points="185.292,-425.029 181.792,-415.029 178.292,-425.029 185.292,-425.029"/>
</g>
<!-- setCommand -->
<g id="node8" class="node"><title>setCommand</title>
<ellipse fill="none" stroke="black" cx="106.792" cy="-310" rx="57.6901" ry="18"/>
<text text-anchor="middle" x="106.792" y="-306.3" font-family="Times,serif" font-size="14.00">setCommand</text>
</g>
<!-- call&#45;&gt;setCommand -->
<g id="edge7" class="edge"><title>call&#45;&gt;setCommand</title>
<path fill="none" stroke="black" d="M168.728,-381.194C157.609,-368.592 141.413,-350.237 128.372,-335.457"/>
<polygon fill="black" stroke="black" points="130.744,-332.856 121.504,-327.673 125.496,-337.487 130.744,-332.856"/>
</g>
<!-- propagate -->
<g id="node24" class="node"><title>propagate</title>
<ellipse fill="none" stroke="black" cx="261.792" cy="-310" rx="45.4919" ry="18"/>
<text text-anchor="middle" x="261.792" y="-306.3" font-family="Times,serif" font-size="14.00">propagate</text>
</g>
<!-- call&#45;&gt;propagate -->
<g id="edge23" class="edge"><title>call&#45;&gt;propagate</title>
<path fill="none" stroke="black" d="M195.727,-381.194C207.85,-368.314 225.63,-349.422 239.692,-334.482"/>
<polygon fill="black" stroke="black" points="242.352,-336.762 246.657,-327.082 237.254,-331.965 242.352,-336.762"/>
</g>
<!-- setGenericCommand -->
<g id="node9" class="node"><title>setGenericCommand</title>
<ellipse fill="none" stroke="black" cx="85.7924" cy="-237" rx="85.5853" ry="18"/>
<text text-anchor="middle" x="85.7924" y="-233.3" font-family="Times,serif" font-size="14.00">setGenericCommand</text>
</g>
<!-- setCommand&#45;&gt;setGenericCommand -->
<g id="edge8" class="edge"><title>setCommand&#45;&gt;setGenericCommand</title>
<path fill="none" stroke="black" d="M101.709,-291.813C99.31,-283.702 96.3916,-273.836 93.7122,-264.777"/>
<polygon fill="black" stroke="black" points="97.0217,-263.625 90.8291,-255.029 90.3092,-265.611 97.0217,-263.625"/>
</g>
<!-- setKey -->
<g id="node10" class="node"><title>setKey</title>
<ellipse fill="none" stroke="black" cx="85.7924" cy="-164" rx="35.194" ry="18"/>
<text text-anchor="middle" x="85.7924" y="-160.3" font-family="Times,serif" font-size="14.00">setKey</text>
</g>
<!-- setGenericCommand&#45;&gt;setKey -->
<g id="edge9" class="edge"><title>setGenericCommand&#45;&gt;setKey</title>
<path fill="none" stroke="black" d="M85.7924,-218.813C85.7924,-210.789 85.7924,-201.047 85.7924,-192.069"/>
<polygon fill="black" stroke="black" points="89.2925,-192.029 85.7924,-182.029 82.2925,-192.029 89.2925,-192.029"/>
</g>
<!-- dbAdd -->
<g id="node11" class="node"><title>dbAdd</title>
<ellipse fill="none" stroke="black" cx="85.7924" cy="-91" rx="34.394" ry="18"/>
<text text-anchor="middle" x="85.7924" y="-87.3" font-family="Times,serif" font-size="14.00">dbAdd</text>
</g>
<!-- setKey&#45;&gt;dbAdd -->
<g id="edge10" class="edge"><title>setKey&#45;&gt;dbAdd</title>
<path fill="none" stroke="black" d="M85.7924,-145.813C85.7924,-137.789 85.7924,-128.047 85.7924,-119.069"/>
<polygon fill="black" stroke="black" points="89.2925,-119.029 85.7924,-109.029 82.2925,-119.029 89.2925,-119.029"/>
</g>
<!-- dictAdd -->
<g id="node12" class="node"><title>dictAdd</title>
<ellipse fill="none" stroke="black" cx="85.7924" cy="-18" rx="38.9931" ry="18"/>
<text text-anchor="middle" x="85.7924" y="-14.3" font-family="Times,serif" font-size="14.00">dictAdd</text>
</g>
<!-- dbAdd&#45;&gt;dictAdd -->
<g id="edge11" class="edge"><title>dbAdd&#45;&gt;dictAdd</title>
<path fill="none" stroke="black" d="M85.7924,-72.8129C85.7924,-64.7895 85.7924,-55.0475 85.7924,-46.0691"/>
<polygon fill="black" stroke="black" points="89.2925,-46.0288 85.7924,-36.0288 82.2925,-46.0289 89.2925,-46.0288"/>
</g>
<!-- handleClientsWithPendingWrites -->
<g id="node14" class="node"><title>handleClientsWithPendingWrites</title>
<ellipse fill="none" stroke="black" cx="418.792" cy="-616" rx="129.977" ry="18"/>
<text text-anchor="middle" x="418.792" y="-612.3" font-family="Times,serif" font-size="14.00">handleClientsWithPendingWrites</text>
</g>
<!-- beforeSleep&#45;&gt;handleClientsWithPendingWrites -->
<g id="edge13" class="edge"><title>beforeSleep&#45;&gt;handleClientsWithPendingWrites</title>
<path fill="none" stroke="black" d="M418.792,-670.813C418.792,-662.789 418.792,-653.047 418.792,-644.069"/>
<polygon fill="black" stroke="black" points="422.292,-644.029 418.792,-634.029 415.292,-644.029 422.292,-644.029"/>
</g>
<!-- flushAppendOnlyFile -->
<g id="node18" class="node"><title>flushAppendOnlyFile</title>
<ellipse fill="none" stroke="black" cx="653.792" cy="-616" rx="87.1846" ry="18"/>
<text text-anchor="middle" x="653.792" y="-612.3" font-family="Times,serif" font-size="14.00">flushAppendOnlyFile</text>
</g>
<!-- beforeSleep&#45;&gt;flushAppendOnlyFile -->
<g id="edge17" class="edge"><title>beforeSleep&#45;&gt;flushAppendOnlyFile</title>
<path fill="none" stroke="black" d="M456.81,-676.514C494.732,-665.057 553.446,-647.317 596.915,-634.184"/>
<polygon fill="black" stroke="black" points="597.94,-637.531 606.501,-631.288 595.916,-630.83 597.94,-637.531"/>
</g>
<!-- writeToClient -->
<g id="node15" class="node"><title>writeToClient</title>
<ellipse fill="none" stroke="black" cx="418.792" cy="-543" rx="59.5901" ry="18"/>
<text text-anchor="middle" x="418.792" y="-539.3" font-family="Times,serif" font-size="14.00">writeToClient</text>
</g>
<!-- handleClientsWithPendingWrites&#45;&gt;writeToClient -->
<g id="edge14" class="edge"><title>handleClientsWithPendingWrites&#45;&gt;writeToClient</title>
<path fill="none" stroke="black" d="M418.792,-597.813C418.792,-589.789 418.792,-580.047 418.792,-571.069"/>
<polygon fill="black" stroke="black" points="422.292,-571.029 418.792,-561.029 415.292,-571.029 422.292,-571.029"/>
</g>
<!-- write -->
<g id="node16" class="node"><title>write</title>
<ellipse fill="none" stroke="black" cx="418.792" cy="-470" rx="28.6953" ry="18"/>
<text text-anchor="middle" x="418.792" y="-466.3" font-family="Times,serif" font-size="14.00">write</text>
</g>
<!-- writeToClient&#45;&gt;write -->
<g id="edge15" class="edge"><title>writeToClient&#45;&gt;write</title>
<path fill="none" stroke="black" d="M418.792,-524.813C418.792,-516.789 418.792,-507.047 418.792,-498.069"/>
<polygon fill="black" stroke="black" points="422.292,-498.029 418.792,-488.029 415.292,-498.029 422.292,-498.029"/>
</g>
<!-- WRITE_TO_SOCKET -->
<g id="node17" class="node"><title>WRITE_TO_SOCKET</title>
<ellipse fill="none" stroke="black" cx="418.792" cy="-397" rx="93.6835" ry="18"/>
<text text-anchor="middle" x="418.792" y="-393.3" font-family="Times,serif" font-size="14.00">WRITE_TO_SOCKET</text>
</g>
<!-- write&#45;&gt;WRITE_TO_SOCKET -->
<g id="edge16" class="edge"><title>write&#45;&gt;WRITE_TO_SOCKET</title>
<path fill="none" stroke="black" d="M418.792,-451.813C418.792,-443.789 418.792,-434.047 418.792,-425.069"/>
<polygon fill="black" stroke="black" points="422.292,-425.029 418.792,-415.029 415.292,-425.029 422.292,-425.029"/>
</g>
<!-- aofWrite -->
<g id="node19" class="node"><title>aofWrite</title>
<ellipse fill="none" stroke="black" cx="569.792" cy="-543" rx="42.4939" ry="18"/>
<text text-anchor="middle" x="569.792" y="-539.3" font-family="Times,serif" font-size="14.00">aofWrite</text>
</g>
<!-- flushAppendOnlyFile&#45;&gt;aofWrite -->
<g id="edge18" class="edge"><title>flushAppendOnlyFile&#45;&gt;aofWrite</title>
<path fill="none" stroke="black" d="M633.886,-598.174C622.503,-588.553 608.095,-576.375 595.823,-566.002"/>
<polygon fill="black" stroke="black" points="598.018,-563.274 588.121,-559.492 593.499,-568.621 598.018,-563.274"/>
</g>
<!-- aof_background_fsync -->
<g id="node21" class="node"><title>aof_background_fsync</title>
<ellipse fill="none" stroke="black" cx="726.792" cy="-543" rx="90.9839" ry="18"/>
<text text-anchor="middle" x="726.792" y="-539.3" font-family="Times,serif" font-size="14.00">aof_background_fsync</text>
</g>
<!-- flushAppendOnlyFile&#45;&gt;aof_background_fsync -->
<g id="edge20" class="edge"><title>flushAppendOnlyFile&#45;&gt;aof_background_fsync</title>
<path fill="none" stroke="black" d="M671.092,-598.174C680.365,-589.155 691.95,-577.888 702.149,-567.968"/>
<polygon fill="black" stroke="black" points="704.888,-570.186 709.617,-560.705 700.008,-565.168 704.888,-570.186"/>
</g>
<!-- WRITE_TO_FILE -->
<g id="node20" class="node"><title>WRITE_TO_FILE</title>
<ellipse fill="none" stroke="black" cx="563.792" cy="-470" rx="77.9862" ry="18"/>
<text text-anchor="middle" x="563.792" y="-466.3" font-family="Times,serif" font-size="14.00">WRITE_TO_FILE</text>
</g>
<!-- aofWrite&#45;&gt;WRITE_TO_FILE -->
<g id="edge19" class="edge"><title>aofWrite&#45;&gt;WRITE_TO_FILE</title>
<path fill="none" stroke="black" d="M568.34,-524.813C567.662,-516.789 566.839,-507.047 566.08,-498.069"/>
<polygon fill="black" stroke="black" points="569.561,-497.699 565.231,-488.029 562.586,-498.288 569.561,-497.699"/>
</g>
<!-- bioCreateBackgroundJob -->
<g id="node22" class="node"><title>bioCreateBackgroundJob</title>
<ellipse fill="none" stroke="black" cx="759.792" cy="-470" rx="100.182" ry="18"/>
<text text-anchor="middle" x="759.792" y="-466.3" font-family="Times,serif" font-size="14.00">bioCreateBackgroundJob</text>
</g>
<!-- aof_background_fsync&#45;&gt;bioCreateBackgroundJob -->
<g id="edge21" class="edge"><title>aof_background_fsync&#45;&gt;bioCreateBackgroundJob</title>
<path fill="none" stroke="black" d="M734.781,-524.813C738.632,-516.528 743.334,-506.41 747.618,-497.193"/>
<polygon fill="black" stroke="black" points="750.837,-498.572 751.878,-488.029 744.489,-495.622 750.837,-498.572"/>
</g>
<!-- pthread_cond_signal -->
<g id="node23" class="node"><title>pthread_cond_signal</title>
<ellipse fill="none" stroke="black" cx="771.792" cy="-397" rx="83.6854" ry="18"/>
<text text-anchor="middle" x="771.792" y="-393.3" font-family="Times,serif" font-size="14.00">pthread_cond_signal</text>
</g>
<!-- bioCreateBackgroundJob&#45;&gt;pthread_cond_signal -->
<g id="edge22" class="edge"><title>bioCreateBackgroundJob&#45;&gt;pthread_cond_signal</title>
<path fill="none" stroke="black" d="M762.697,-451.813C764.053,-443.789 765.7,-434.047 767.217,-425.069"/>
<polygon fill="black" stroke="black" points="770.699,-425.472 768.914,-415.029 763.797,-424.306 770.699,-425.472"/>
</g>
<!-- pthread_cond_wait -->
<g id="node30" class="node"><title>pthread_cond_wait</title>
<ellipse fill="none" stroke="black" cx="953.792" cy="-310" rx="77.9862" ry="18"/>
<text text-anchor="middle" x="953.792" y="-306.3" font-family="Times,serif" font-size="14.00">pthread_cond_wait</text>
</g>
<!-- pthread_cond_signal&#45;&gt;pthread_cond_wait -->
<g id="edge30" class="edge"><title>pthread_cond_signal&#45;&gt;pthread_cond_wait</title>
<path fill="none" stroke="black" stroke-dasharray="5,2" d="M805.174,-380.41C835.156,-366.407 879.313,-345.784 911.705,-330.656"/>
<polygon fill="black" stroke="black" points="913.35,-333.751 920.929,-326.348 910.387,-327.409 913.35,-333.751"/>
<text text-anchor="middle" x="915.792" y="-349.8" font-family="Times,serif" font-size="14.00">唤醒守护线程</text>
</g>
<!-- feedAppendOnlyFile -->
<g id="node25" class="node"><title>feedAppendOnlyFile</title>
<ellipse fill="none" stroke="black" cx="274.792" cy="-237" rx="85.2851" ry="18"/>
<text text-anchor="middle" x="274.792" y="-233.3" font-family="Times,serif" font-size="14.00">feedAppendOnlyFile</text>
</g>
<!-- propagate&#45;&gt;feedAppendOnlyFile -->
<g id="edge24" class="edge"><title>propagate&#45;&gt;feedAppendOnlyFile</title>
<path fill="none" stroke="black" d="M264.939,-291.813C266.408,-283.789 268.192,-274.047 269.836,-265.069"/>
<polygon fill="black" stroke="black" points="273.316,-265.496 271.674,-255.029 266.431,-264.235 273.316,-265.496"/>
</g>
<!-- MEMCPY_BUF -->
<g id="node26" class="node"><title>MEMCPY_BUF</title>
<ellipse fill="none" stroke="black" cx="274.792" cy="-164" rx="71.4873" ry="18"/>
<text text-anchor="middle" x="274.792" y="-160.3" font-family="Times,serif" font-size="14.00">MEMCPY_BUF</text>
</g>
<!-- feedAppendOnlyFile&#45;&gt;MEMCPY_BUF -->
<g id="edge25" class="edge"><title>feedAppendOnlyFile&#45;&gt;MEMCPY_BUF</title>
<path fill="none" stroke="black" d="M274.792,-218.813C274.792,-210.789 274.792,-201.047 274.792,-192.069"/>
<polygon fill="black" stroke="black" points="278.292,-192.029 274.792,-182.029 271.292,-192.029 278.292,-192.029"/>
</g>
<!-- clone -->
<g id="node27" class="node"><title>clone</title>
<ellipse fill="none" stroke="black" cx="1006.79" cy="-543" rx="29.795" ry="18"/>
<text text-anchor="middle" x="1006.79" y="-539.3" font-family="Times,serif" font-size="14.00">clone</text>
</g>
<!-- start_thread -->
<g id="node28" class="node"><title>start_thread</title>
<ellipse fill="none" stroke="black" cx="1006.79" cy="-470" rx="51.9908" ry="18"/>
<text text-anchor="middle" x="1006.79" y="-466.3" font-family="Times,serif" font-size="14.00">start_thread</text>
</g>
<!-- clone&#45;&gt;start_thread -->
<g id="edge26" class="edge"><title>clone&#45;&gt;start_thread</title>
<path fill="none" stroke="black" d="M1006.79,-524.813C1006.79,-516.789 1006.79,-507.047 1006.79,-498.069"/>
<polygon fill="black" stroke="black" points="1010.29,-498.029 1006.79,-488.029 1003.29,-498.029 1010.29,-498.029"/>
</g>
<!-- bioProcessBackgroundJobs -->
<g id="node29" class="node"><title>bioProcessBackgroundJobs</title>
<ellipse fill="none" stroke="black" cx="1006.79" cy="-397" rx="107.482" ry="18"/>
<text text-anchor="middle" x="1006.79" y="-393.3" font-family="Times,serif" font-size="14.00">bioProcessBackgroundJobs</text>
</g>
<!-- start_thread&#45;&gt;bioProcessBackgroundJobs -->
<g id="edge27" class="edge"><title>start_thread&#45;&gt;bioProcessBackgroundJobs</title>
<path fill="none" stroke="black" d="M1006.79,-451.813C1006.79,-443.789 1006.79,-434.047 1006.79,-425.069"/>
<polygon fill="black" stroke="black" points="1010.29,-425.029 1006.79,-415.029 1003.29,-425.029 1010.29,-425.029"/>
</g>
<!-- bioProcessBackgroundJobs&#45;&gt;pthread_cond_wait -->
<g id="edge28" class="edge"><title>bioProcessBackgroundJobs&#45;&gt;pthread_cond_wait</title>
<path fill="none" stroke="black" d="M996.067,-378.799C988.474,-366.622 978.165,-350.089 969.629,-336.398"/>
<polygon fill="black" stroke="black" points="972.582,-334.519 964.321,-327.885 966.642,-338.223 972.582,-334.519"/>
</g>
<!-- fdatasync -->
<g id="node31" class="node"><title>fdatasync</title>
<ellipse fill="none" stroke="black" cx="1093.79" cy="-310" rx="44.393" ry="18"/>
<text text-anchor="middle" x="1093.79" y="-306.3" font-family="Times,serif" font-size="14.00">fdatasync</text>
</g>
<!-- bioProcessBackgroundJobs&#45;&gt;fdatasync -->
<g id="edge29" class="edge"><title>bioProcessBackgroundJobs&#45;&gt;fdatasync</title>
<path fill="none" stroke="black" d="M1023.98,-379.207C1037.22,-366.27 1055.67,-348.243 1070.28,-333.97"/>
<polygon fill="black" stroke="black" points="1072.82,-336.388 1077.52,-326.896 1067.92,-331.381 1072.82,-336.388"/>
</g>
</g>
</svg>
