<?xml version="1.0" encoding="UTF-8" standalone="no"?>
<!DOCTYPE svg PUBLIC "-//W3C//DTD SVG 1.1//EN"
 "http://www.w3.org/Graphics/SVG/1.1/DTD/svg11.dtd">
<!-- Generated by graphviz version 2.38.0 (20140413.2041)
 -->
<!-- Title: G Pages: 1 -->
<svg width="899pt" height="836pt"
 viewBox="0.00 0.00 899.03 836.00" xmlns="http://www.w3.org/2000/svg" xmlns:xlink="http://www.w3.org/1999/xlink">
<g id="graph0" class="graph" transform="scale(1 1) rotate(0) translate(4 832)">
<title>G</title>
<polygon fill="white" stroke="none" points="-4,4 -4,-832 895.033,-832 895.033,4 -4,4"/>
<!-- main -->
<g id="node1" class="node"><title>main</title>
<ellipse fill="none" stroke="black" cx="305.792" cy="-810" rx="28.6953" ry="18"/>
<text text-anchor="middle" x="305.792" y="-806.3" font-family="Times,serif" font-size="14.00">main</text>
</g>
<!-- aeMain -->
<g id="node2" class="node"><title>aeMain</title>
<ellipse fill="none" stroke="black" cx="305.792" cy="-738" rx="37.8943" ry="18"/>
<text text-anchor="middle" x="305.792" y="-734.3" font-family="Times,serif" font-size="14.00">aeMain</text>
</g>
<!-- main&#45;&gt;aeMain -->
<g id="edge1" class="edge"><title>main&#45;&gt;aeMain</title>
<path fill="none" stroke="black" d="M305.792,-791.697C305.792,-783.983 305.792,-774.712 305.792,-766.112"/>
<polygon fill="black" stroke="black" points="309.292,-766.104 305.792,-756.104 302.292,-766.104 309.292,-766.104"/>
</g>
<!-- aeProcessEvents -->
<g id="node3" class="node"><title>aeProcessEvents</title>
<ellipse fill="none" stroke="black" cx="211.792" cy="-666" rx="69.5877" ry="18"/>
<text text-anchor="middle" x="211.792" y="-662.3" font-family="Times,serif" font-size="14.00">aeProcessEvents</text>
</g>
<!-- aeMain&#45;&gt;aeProcessEvents -->
<g id="edge2" class="edge"><title>aeMain&#45;&gt;aeProcessEvents</title>
<path fill="none" stroke="black" d="M286.316,-722.496C273.459,-712.922 256.36,-700.189 241.784,-689.334"/>
<polygon fill="black" stroke="black" points="243.655,-686.364 233.544,-683.198 239.474,-691.978 243.655,-686.364"/>
</g>
<!-- beforeSleep -->
<g id="node13" class="node"><title>beforeSleep</title>
<ellipse fill="none" stroke="black" cx="399.792" cy="-666" rx="52.7911" ry="18"/>
<text text-anchor="middle" x="399.792" y="-662.3" font-family="Times,serif" font-size="14.00">beforeSleep</text>
</g>
<!-- aeMain&#45;&gt;beforeSleep -->
<g id="edge12" class="edge"><title>aeMain&#45;&gt;beforeSleep</title>
<path fill="none" stroke="black" d="M325.269,-722.496C338.306,-712.788 355.704,-699.832 370.411,-688.88"/>
<polygon fill="black" stroke="black" points="372.776,-691.482 378.706,-682.703 368.595,-685.868 372.776,-691.482"/>
</g>
<!-- readQueryFromClient -->
<g id="node4" class="node"><title>readQueryFromClient</title>
<ellipse fill="none" stroke="black" cx="162.792" cy="-594" rx="89.0842" ry="18"/>
<text text-anchor="middle" x="162.792" y="-590.3" font-family="Times,serif" font-size="14.00">readQueryFromClient</text>
</g>
<!-- aeProcessEvents&#45;&gt;readQueryFromClient -->
<g id="edge3" class="edge"><title>aeProcessEvents&#45;&gt;readQueryFromClient</title>
<path fill="none" stroke="black" d="M199.931,-648.055C194.179,-639.837 187.146,-629.791 180.754,-620.66"/>
<polygon fill="black" stroke="black" points="183.487,-618.461 174.885,-612.275 177.752,-622.475 183.487,-618.461"/>
</g>
<!-- processInputBuffer -->
<g id="node5" class="node"><title>processInputBuffer</title>
<ellipse fill="none" stroke="black" cx="162.792" cy="-522" rx="78.7863" ry="18"/>
<text text-anchor="middle" x="162.792" y="-518.3" font-family="Times,serif" font-size="14.00">processInputBuffer</text>
</g>
<!-- readQueryFromClient&#45;&gt;processInputBuffer -->
<g id="edge4" class="edge"><title>readQueryFromClient&#45;&gt;processInputBuffer</title>
<path fill="none" stroke="black" d="M162.792,-575.697C162.792,-567.983 162.792,-558.712 162.792,-550.112"/>
<polygon fill="black" stroke="black" points="166.292,-550.104 162.792,-540.104 159.292,-550.104 166.292,-550.104"/>
</g>
<!-- processCommand -->
<g id="node6" class="node"><title>processCommand</title>
<ellipse fill="none" stroke="black" cx="162.792" cy="-450" rx="74.9875" ry="18"/>
<text text-anchor="middle" x="162.792" y="-446.3" font-family="Times,serif" font-size="14.00">processCommand</text>
</g>
<!-- processInputBuffer&#45;&gt;processCommand -->
<g id="edge5" class="edge"><title>processInputBuffer&#45;&gt;processCommand</title>
<path fill="none" stroke="black" d="M162.792,-503.697C162.792,-495.983 162.792,-486.712 162.792,-478.112"/>
<polygon fill="black" stroke="black" points="166.292,-478.104 162.792,-468.104 159.292,-478.104 166.292,-478.104"/>
</g>
<!-- call -->
<g id="node7" class="node"><title>call</title>
<ellipse fill="none" stroke="black" cx="162.792" cy="-378" rx="27" ry="18"/>
<text text-anchor="middle" x="162.792" y="-374.3" font-family="Times,serif" font-size="14.00">call</text>
</g>
<!-- processCommand&#45;&gt;call -->
<g id="edge6" class="edge"><title>processCommand&#45;&gt;call</title>
<path fill="none" stroke="black" d="M162.792,-431.697C162.792,-423.983 162.792,-414.712 162.792,-406.112"/>
<polygon fill="black" stroke="black" points="166.292,-406.104 162.792,-396.104 159.292,-406.104 166.292,-406.104"/>
</g>
<!-- setCommand -->
<g id="node8" class="node"><title>setCommand</title>
<ellipse fill="none" stroke="black" cx="102.792" cy="-306" rx="57.6901" ry="18"/>
<text text-anchor="middle" x="102.792" y="-302.3" font-family="Times,serif" font-size="14.00">setCommand</text>
</g>
<!-- call&#45;&gt;setCommand -->
<g id="edge7" class="edge"><title>call&#45;&gt;setCommand</title>
<path fill="none" stroke="black" d="M149.773,-361.811C142.158,-352.927 132.367,-341.504 123.696,-331.388"/>
<polygon fill="black" stroke="black" points="126.21,-328.943 117.045,-323.628 120.895,-333.498 126.21,-328.943"/>
</g>
<!-- propagate -->
<g id="node21" class="node"><title>propagate</title>
<ellipse fill="none" stroke="black" cx="257.792" cy="-306" rx="45.4919" ry="18"/>
<text text-anchor="middle" x="257.792" y="-302.3" font-family="Times,serif" font-size="14.00">propagate</text>
</g>
<!-- call&#45;&gt;propagate -->
<g id="edge20" class="edge"><title>call&#45;&gt;propagate</title>
<path fill="none" stroke="black" d="M180.217,-364.161C193.776,-354.17 212.889,-340.087 228.75,-328.4"/>
<polygon fill="black" stroke="black" points="231.197,-330.944 237.171,-322.194 227.045,-325.309 231.197,-330.944"/>
</g>
<!-- setGenericCommand -->
<g id="node9" class="node"><title>setGenericCommand</title>
<ellipse fill="none" stroke="black" cx="85.7924" cy="-234" rx="85.5853" ry="18"/>
<text text-anchor="middle" x="85.7924" y="-230.3" font-family="Times,serif" font-size="14.00">setGenericCommand</text>
</g>
<!-- setCommand&#45;&gt;setGenericCommand -->
<g id="edge8" class="edge"><title>setCommand&#45;&gt;setGenericCommand</title>
<path fill="none" stroke="black" d="M98.5901,-287.697C96.6962,-279.898 94.4159,-270.509 92.308,-261.829"/>
<polygon fill="black" stroke="black" points="95.7075,-260.996 89.9463,-252.104 88.9052,-262.648 95.7075,-260.996"/>
</g>
<!-- setKey -->
<g id="node10" class="node"><title>setKey</title>
<ellipse fill="none" stroke="black" cx="85.7924" cy="-162" rx="35.194" ry="18"/>
<text text-anchor="middle" x="85.7924" y="-158.3" font-family="Times,serif" font-size="14.00">setKey</text>
</g>
<!-- setGenericCommand&#45;&gt;setKey -->
<g id="edge9" class="edge"><title>setGenericCommand&#45;&gt;setKey</title>
<path fill="none" stroke="black" d="M85.7924,-215.697C85.7924,-207.983 85.7924,-198.712 85.7924,-190.112"/>
<polygon fill="black" stroke="black" points="89.2925,-190.104 85.7924,-180.104 82.2925,-190.104 89.2925,-190.104"/>
</g>
<!-- dbAdd -->
<g id="node11" class="node"><title>dbAdd</title>
<ellipse fill="none" stroke="black" cx="85.7924" cy="-90" rx="34.394" ry="18"/>
<text text-anchor="middle" x="85.7924" y="-86.3" font-family="Times,serif" font-size="14.00">dbAdd</text>
</g>
<!-- setKey&#45;&gt;dbAdd -->
<g id="edge10" class="edge"><title>setKey&#45;&gt;dbAdd</title>
<path fill="none" stroke="black" d="M85.7924,-143.697C85.7924,-135.983 85.7924,-126.712 85.7924,-118.112"/>
<polygon fill="black" stroke="black" points="89.2925,-118.104 85.7924,-108.104 82.2925,-118.104 89.2925,-118.104"/>
</g>
<!-- dictAdd -->
<g id="node12" class="node"><title>dictAdd</title>
<ellipse fill="none" stroke="black" cx="85.7924" cy="-18" rx="38.9931" ry="18"/>
<text text-anchor="middle" x="85.7924" y="-14.3" font-family="Times,serif" font-size="14.00">dictAdd</text>
</g>
<!-- dbAdd&#45;&gt;dictAdd -->
<g id="edge11" class="edge"><title>dbAdd&#45;&gt;dictAdd</title>
<path fill="none" stroke="black" d="M85.7924,-71.6966C85.7924,-63.9827 85.7924,-54.7125 85.7924,-46.1124"/>
<polygon fill="black" stroke="black" points="89.2925,-46.1043 85.7924,-36.1043 82.2925,-46.1044 89.2925,-46.1043"/>
</g>
<!-- handleClientsWithPendingWrites -->
<g id="node14" class="node"><title>handleClientsWithPendingWrites</title>
<ellipse fill="none" stroke="black" cx="399.792" cy="-594" rx="129.977" ry="18"/>
<text text-anchor="middle" x="399.792" y="-590.3" font-family="Times,serif" font-size="14.00">handleClientsWithPendingWrites</text>
</g>
<!-- beforeSleep&#45;&gt;handleClientsWithPendingWrites -->
<g id="edge13" class="edge"><title>beforeSleep&#45;&gt;handleClientsWithPendingWrites</title>
<path fill="none" stroke="black" d="M399.792,-647.697C399.792,-639.983 399.792,-630.712 399.792,-622.112"/>
<polygon fill="black" stroke="black" points="403.292,-622.104 399.792,-612.104 396.292,-622.104 403.292,-622.104"/>
</g>
<!-- flushAppendOnlyFile -->
<g id="node18" class="node"><title>flushAppendOnlyFile</title>
<ellipse fill="none" stroke="black" cx="634.792" cy="-594" rx="87.1846" ry="18"/>
<text text-anchor="middle" x="634.792" y="-590.3" font-family="Times,serif" font-size="14.00">flushAppendOnlyFile</text>
</g>
<!-- beforeSleep&#45;&gt;flushAppendOnlyFile -->
<g id="edge17" class="edge"><title>beforeSleep&#45;&gt;flushAppendOnlyFile</title>
<path fill="none" stroke="black" d="M438.072,-653.597C475.839,-642.348 534.044,-625.01 577.356,-612.109"/>
<polygon fill="black" stroke="black" points="578.604,-615.389 587.189,-609.18 576.606,-608.68 578.604,-615.389"/>
</g>
<!-- writeToClient -->
<g id="node15" class="node"><title>writeToClient</title>
<ellipse fill="none" stroke="black" cx="399.792" cy="-522" rx="59.5901" ry="18"/>
<text text-anchor="middle" x="399.792" y="-518.3" font-family="Times,serif" font-size="14.00">writeToClient</text>
</g>
<!-- handleClientsWithPendingWrites&#45;&gt;writeToClient -->
<g id="edge14" class="edge"><title>handleClientsWithPendingWrites&#45;&gt;writeToClient</title>
<path fill="none" stroke="black" d="M399.792,-575.697C399.792,-567.983 399.792,-558.712 399.792,-550.112"/>
<polygon fill="black" stroke="black" points="403.292,-550.104 399.792,-540.104 396.292,-550.104 403.292,-550.104"/>
</g>
<!-- write -->
<g id="node16" class="node"><title>write</title>
<ellipse fill="none" stroke="black" cx="399.792" cy="-450" rx="28.6953" ry="18"/>
<text text-anchor="middle" x="399.792" y="-446.3" font-family="Times,serif" font-size="14.00">write</text>
</g>
<!-- writeToClient&#45;&gt;write -->
<g id="edge15" class="edge"><title>writeToClient&#45;&gt;write</title>
<path fill="none" stroke="black" d="M399.792,-503.697C399.792,-495.983 399.792,-486.712 399.792,-478.112"/>
<polygon fill="black" stroke="black" points="403.292,-478.104 399.792,-468.104 396.292,-478.104 403.292,-478.104"/>
</g>
<!-- WRITE_TO_SOCKET -->
<g id="node17" class="node"><title>WRITE_TO_SOCKET</title>
<ellipse fill="none" stroke="black" cx="399.792" cy="-378" rx="93.6835" ry="18"/>
<text text-anchor="middle" x="399.792" y="-374.3" font-family="Times,serif" font-size="14.00">WRITE_TO_SOCKET</text>
</g>
<!-- write&#45;&gt;WRITE_TO_SOCKET -->
<g id="edge16" class="edge"><title>write&#45;&gt;WRITE_TO_SOCKET</title>
<path fill="none" stroke="black" d="M399.792,-431.697C399.792,-423.983 399.792,-414.712 399.792,-406.112"/>
<polygon fill="black" stroke="black" points="403.292,-406.104 399.792,-396.104 396.292,-406.104 403.292,-406.104"/>
</g>
<!-- aof_background_fsync -->
<g id="node19" class="node"><title>aof_background_fsync</title>
<ellipse fill="none" stroke="black" cx="634.792" cy="-522" rx="90.9839" ry="18"/>
<text text-anchor="middle" x="634.792" y="-518.3" font-family="Times,serif" font-size="14.00">aof_background_fsync</text>
</g>
<!-- flushAppendOnlyFile&#45;&gt;aof_background_fsync -->
<g id="edge18" class="edge"><title>flushAppendOnlyFile&#45;&gt;aof_background_fsync</title>
<path fill="none" stroke="black" d="M634.792,-575.697C634.792,-567.983 634.792,-558.712 634.792,-550.112"/>
<polygon fill="black" stroke="black" points="638.292,-550.104 634.792,-540.104 631.292,-550.104 638.292,-550.104"/>
</g>
<!-- bioCreateBackgroundJob -->
<g id="node20" class="node"><title>bioCreateBackgroundJob</title>
<ellipse fill="none" stroke="black" cx="634.792" cy="-450" rx="100.182" ry="18"/>
<text text-anchor="middle" x="634.792" y="-446.3" font-family="Times,serif" font-size="14.00">bioCreateBackgroundJob</text>
</g>
<!-- aof_background_fsync&#45;&gt;bioCreateBackgroundJob -->
<g id="edge19" class="edge"><title>aof_background_fsync&#45;&gt;bioCreateBackgroundJob</title>
<path fill="none" stroke="black" d="M634.792,-503.697C634.792,-495.983 634.792,-486.712 634.792,-478.112"/>
<polygon fill="black" stroke="black" points="638.292,-478.104 634.792,-468.104 631.292,-478.104 638.292,-478.104"/>
</g>
<!-- feedAppendOnlyFile -->
<g id="node22" class="node"><title>feedAppendOnlyFile</title>
<ellipse fill="none" stroke="black" cx="274.792" cy="-234" rx="85.2851" ry="18"/>
<text text-anchor="middle" x="274.792" y="-230.3" font-family="Times,serif" font-size="14.00">feedAppendOnlyFile</text>
</g>
<!-- propagate&#45;&gt;feedAppendOnlyFile -->
<g id="edge21" class="edge"><title>propagate&#45;&gt;feedAppendOnlyFile</title>
<path fill="none" stroke="black" d="M261.908,-288.055C263.8,-280.261 266.093,-270.822 268.216,-262.079"/>
<polygon fill="black" stroke="black" points="271.638,-262.819 270.597,-252.275 264.836,-261.167 271.638,-262.819"/>
</g>
<!-- WRITE_FILE -->
<g id="node23" class="node"><title>WRITE_FILE</title>
<ellipse fill="none" stroke="black" cx="274.792" cy="-162" rx="61.99" ry="18"/>
<text text-anchor="middle" x="274.792" y="-158.3" font-family="Times,serif" font-size="14.00">WRITE_FILE</text>
</g>
<!-- feedAppendOnlyFile&#45;&gt;WRITE_FILE -->
<g id="edge22" class="edge"><title>feedAppendOnlyFile&#45;&gt;WRITE_FILE</title>
<path fill="none" stroke="black" d="M274.792,-215.697C274.792,-207.983 274.792,-198.712 274.792,-190.112"/>
<polygon fill="black" stroke="black" points="278.292,-190.104 274.792,-180.104 271.292,-190.104 278.292,-190.104"/>
</g>
<!-- clone -->
<g id="node24" class="node"><title>clone</title>
<ellipse fill="none" stroke="black" cx="783.792" cy="-810" rx="29.795" ry="18"/>
<text text-anchor="middle" x="783.792" y="-806.3" font-family="Times,serif" font-size="14.00">clone</text>
</g>
<!-- start_thread -->
<g id="node25" class="node"><title>start_thread</title>
<ellipse fill="none" stroke="black" cx="783.792" cy="-738" rx="51.9908" ry="18"/>
<text text-anchor="middle" x="783.792" y="-734.3" font-family="Times,serif" font-size="14.00">start_thread</text>
</g>
<!-- clone&#45;&gt;start_thread -->
<g id="edge23" class="edge"><title>clone&#45;&gt;start_thread</title>
<path fill="none" stroke="black" d="M783.792,-791.697C783.792,-783.983 783.792,-774.712 783.792,-766.112"/>
<polygon fill="black" stroke="black" points="787.292,-766.104 783.792,-756.104 780.292,-766.104 787.292,-766.104"/>
</g>
<!-- bioProcessBackgroundJobs -->
<g id="node26" class="node"><title>bioProcessBackgroundJobs</title>
<ellipse fill="none" stroke="black" cx="783.792" cy="-666" rx="107.482" ry="18"/>
<text text-anchor="middle" x="783.792" y="-662.3" font-family="Times,serif" font-size="14.00">bioProcessBackgroundJobs</text>
</g>
<!-- start_thread&#45;&gt;bioProcessBackgroundJobs -->
<g id="edge24" class="edge"><title>start_thread&#45;&gt;bioProcessBackgroundJobs</title>
<path fill="none" stroke="black" d="M783.792,-719.697C783.792,-711.983 783.792,-702.712 783.792,-694.112"/>
<polygon fill="black" stroke="black" points="787.292,-694.104 783.792,-684.104 780.292,-694.104 787.292,-694.104"/>
</g>
<!-- fdatasync -->
<g id="node27" class="node"><title>fdatasync</title>
<ellipse fill="none" stroke="black" cx="783.792" cy="-594" rx="44.393" ry="18"/>
<text text-anchor="middle" x="783.792" y="-590.3" font-family="Times,serif" font-size="14.00">fdatasync</text>
</g>
<!-- bioProcessBackgroundJobs&#45;&gt;fdatasync -->
<g id="edge25" class="edge"><title>bioProcessBackgroundJobs&#45;&gt;fdatasync</title>
<path fill="none" stroke="black" d="M783.792,-647.697C783.792,-639.983 783.792,-630.712 783.792,-622.112"/>
<polygon fill="black" stroke="black" points="787.292,-622.104 783.792,-612.104 780.292,-622.104 787.292,-622.104"/>
</g>
</g>
</svg>
