<?xml version="1.0" encoding="UTF-8" standalone="no"?>
<!DOCTYPE svg PUBLIC "-//W3C//DTD SVG 1.1//EN"
 "http://www.w3.org/Graphics/SVG/1.1/DTD/svg11.dtd">
<!-- Generated by graphviz version 2.38.0 (20140413.2041)
 -->
<!-- Title: G Pages: 1 -->
<svg width="573pt" height="908pt"
 viewBox="0.00 0.00 572.63 908.00" xmlns="http://www.w3.org/2000/svg" xmlns:xlink="http://www.w3.org/1999/xlink">
<g id="graph0" class="graph" transform="scale(1 1) rotate(0) translate(4 904)">
<title>G</title>
<polygon fill="white" stroke="none" points="-4,4 -4,-904 568.629,-904 568.629,4 -4,4"/>
<!-- main -->
<g id="node1" class="node"><title>main</title>
<ellipse fill="none" stroke="black" cx="327.641" cy="-882" rx="28.6953" ry="18"/>
<text text-anchor="middle" x="327.641" y="-878.3" font-family="Times,serif" font-size="14.00">main</text>
</g>
<!-- aeMain -->
<g id="node2" class="node"><title>aeMain</title>
<ellipse fill="none" stroke="black" cx="327.641" cy="-810" rx="37.8943" ry="18"/>
<text text-anchor="middle" x="327.641" y="-806.3" font-family="Times,serif" font-size="14.00">aeMain</text>
</g>
<!-- main&#45;&gt;aeMain -->
<g id="edge1" class="edge"><title>main&#45;&gt;aeMain</title>
<path fill="none" stroke="black" d="M327.641,-863.697C327.641,-855.983 327.641,-846.712 327.641,-838.112"/>
<polygon fill="black" stroke="black" points="331.141,-838.104 327.641,-828.104 324.141,-838.104 331.141,-838.104"/>
</g>
<!-- aeProcessEvents -->
<g id="node3" class="node"><title>aeProcessEvents</title>
<ellipse fill="none" stroke="black" cx="245.641" cy="-738" rx="69.5877" ry="18"/>
<text text-anchor="middle" x="245.641" y="-734.3" font-family="Times,serif" font-size="14.00">aeProcessEvents</text>
</g>
<!-- aeMain&#45;&gt;aeProcessEvents -->
<g id="edge2" class="edge"><title>aeMain&#45;&gt;aeProcessEvents</title>
<path fill="none" stroke="black" d="M309.848,-793.811C298.952,-784.509 284.795,-772.424 272.548,-761.969"/>
<polygon fill="black" stroke="black" points="274.707,-759.211 264.829,-755.38 270.162,-764.535 274.707,-759.211"/>
</g>
<!-- beforeSleep -->
<g id="node17" class="node"><title>beforeSleep</title>
<ellipse fill="none" stroke="black" cx="409.641" cy="-738" rx="52.7911" ry="18"/>
<text text-anchor="middle" x="409.641" y="-734.3" font-family="Times,serif" font-size="14.00">beforeSleep</text>
</g>
<!-- aeMain&#45;&gt;beforeSleep -->
<g id="edge16" class="edge"><title>aeMain&#45;&gt;beforeSleep</title>
<path fill="none" stroke="black" d="M345.433,-793.811C356.484,-784.377 370.889,-772.081 383.254,-761.525"/>
<polygon fill="black" stroke="black" points="385.696,-764.043 391.029,-754.888 381.151,-758.719 385.696,-764.043"/>
</g>
<!-- readQueryFromClient -->
<g id="node4" class="node"><title>readQueryFromClient</title>
<ellipse fill="none" stroke="black" cx="197.641" cy="-666" rx="89.0842" ry="18"/>
<text text-anchor="middle" x="197.641" y="-662.3" font-family="Times,serif" font-size="14.00">readQueryFromClient</text>
</g>
<!-- aeProcessEvents&#45;&gt;readQueryFromClient -->
<g id="edge3" class="edge"><title>aeProcessEvents&#45;&gt;readQueryFromClient</title>
<path fill="none" stroke="black" d="M234.021,-720.055C228.386,-711.837 221.497,-701.791 215.236,-692.66"/>
<polygon fill="black" stroke="black" points="218.029,-690.543 209.487,-684.275 212.255,-694.502 218.029,-690.543"/>
</g>
<!-- processInputBuffer -->
<g id="node5" class="node"><title>processInputBuffer</title>
<ellipse fill="none" stroke="black" cx="197.641" cy="-594" rx="78.7863" ry="18"/>
<text text-anchor="middle" x="197.641" y="-590.3" font-family="Times,serif" font-size="14.00">processInputBuffer</text>
</g>
<!-- readQueryFromClient&#45;&gt;processInputBuffer -->
<g id="edge4" class="edge"><title>readQueryFromClient&#45;&gt;processInputBuffer</title>
<path fill="none" stroke="black" d="M197.641,-647.697C197.641,-639.983 197.641,-630.712 197.641,-622.112"/>
<polygon fill="black" stroke="black" points="201.141,-622.104 197.641,-612.104 194.141,-622.104 201.141,-622.104"/>
</g>
<!-- processCommand -->
<g id="node6" class="node"><title>processCommand</title>
<ellipse fill="none" stroke="black" cx="197.641" cy="-522" rx="74.9875" ry="18"/>
<text text-anchor="middle" x="197.641" y="-518.3" font-family="Times,serif" font-size="14.00">processCommand</text>
</g>
<!-- processInputBuffer&#45;&gt;processCommand -->
<g id="edge5" class="edge"><title>processInputBuffer&#45;&gt;processCommand</title>
<path fill="none" stroke="black" d="M197.641,-575.697C197.641,-567.983 197.641,-558.712 197.641,-550.112"/>
<polygon fill="black" stroke="black" points="201.141,-550.104 197.641,-540.104 194.141,-550.104 201.141,-550.104"/>
</g>
<!-- call -->
<g id="node7" class="node"><title>call</title>
<ellipse fill="none" stroke="black" cx="197.641" cy="-450" rx="27" ry="18"/>
<text text-anchor="middle" x="197.641" y="-446.3" font-family="Times,serif" font-size="14.00">call</text>
</g>
<!-- processCommand&#45;&gt;call -->
<g id="edge6" class="edge"><title>processCommand&#45;&gt;call</title>
<path fill="none" stroke="black" d="M197.641,-503.697C197.641,-495.983 197.641,-486.712 197.641,-478.112"/>
<polygon fill="black" stroke="black" points="201.141,-478.104 197.641,-468.104 194.141,-478.104 201.141,-478.104"/>
</g>
<!-- getCommand -->
<g id="node8" class="node"><title>getCommand</title>
<ellipse fill="none" stroke="black" cx="197.641" cy="-378" rx="59.2899" ry="18"/>
<text text-anchor="middle" x="197.641" y="-374.3" font-family="Times,serif" font-size="14.00">getCommand</text>
</g>
<!-- call&#45;&gt;getCommand -->
<g id="edge7" class="edge"><title>call&#45;&gt;getCommand</title>
<path fill="none" stroke="black" d="M197.641,-431.697C197.641,-423.983 197.641,-414.712 197.641,-406.112"/>
<polygon fill="black" stroke="black" points="201.141,-406.104 197.641,-396.104 194.141,-406.104 201.141,-406.104"/>
</g>
<!-- getGenericCommand -->
<g id="node9" class="node"><title>getGenericCommand</title>
<ellipse fill="none" stroke="black" cx="197.641" cy="-306" rx="87.1846" ry="18"/>
<text text-anchor="middle" x="197.641" y="-302.3" font-family="Times,serif" font-size="14.00">getGenericCommand</text>
</g>
<!-- getCommand&#45;&gt;getGenericCommand -->
<g id="edge8" class="edge"><title>getCommand&#45;&gt;getGenericCommand</title>
<path fill="none" stroke="black" d="M197.641,-359.697C197.641,-351.983 197.641,-342.712 197.641,-334.112"/>
<polygon fill="black" stroke="black" points="201.141,-334.104 197.641,-324.104 194.141,-334.104 201.141,-334.104"/>
</g>
<!-- lookupKeyReadOrReply -->
<g id="node10" class="node"><title>lookupKeyReadOrReply</title>
<ellipse fill="none" stroke="black" cx="108.641" cy="-234" rx="98.2828" ry="18"/>
<text text-anchor="middle" x="108.641" y="-230.3" font-family="Times,serif" font-size="14.00">lookupKeyReadOrReply</text>
</g>
<!-- getGenericCommand&#45;&gt;lookupKeyReadOrReply -->
<g id="edge9" class="edge"><title>getGenericCommand&#45;&gt;lookupKeyReadOrReply</title>
<path fill="none" stroke="black" d="M176.549,-288.411C164.995,-279.324 150.499,-267.922 137.869,-257.989"/>
<polygon fill="black" stroke="black" points="139.913,-255.144 129.89,-251.713 135.586,-260.646 139.913,-255.144"/>
</g>
<!-- addReplyBulk -->
<g id="node14" class="node"><title>addReplyBulk</title>
<ellipse fill="none" stroke="black" cx="293.641" cy="-234" rx="61.99" ry="18"/>
<text text-anchor="middle" x="293.641" y="-230.3" font-family="Times,serif" font-size="14.00">addReplyBulk</text>
</g>
<!-- getGenericCommand&#45;&gt;addReplyBulk -->
<g id="edge13" class="edge"><title>getGenericCommand&#45;&gt;addReplyBulk</title>
<path fill="none" stroke="black" d="M220.391,-288.411C233.248,-279.036 249.483,-267.198 263.4,-257.051"/>
<polygon fill="black" stroke="black" points="265.696,-259.708 271.714,-250.988 261.572,-254.052 265.696,-259.708"/>
</g>
<!-- lookupKeyRead -->
<g id="node11" class="node"><title>lookupKeyRead</title>
<ellipse fill="none" stroke="black" cx="105.641" cy="-162" rx="67.6881" ry="18"/>
<text text-anchor="middle" x="105.641" y="-158.3" font-family="Times,serif" font-size="14.00">lookupKeyRead</text>
</g>
<!-- lookupKeyReadOrReply&#45;&gt;lookupKeyRead -->
<g id="edge10" class="edge"><title>lookupKeyReadOrReply&#45;&gt;lookupKeyRead</title>
<path fill="none" stroke="black" d="M107.899,-215.697C107.569,-207.983 107.171,-198.712 106.803,-190.112"/>
<polygon fill="black" stroke="black" points="110.299,-189.945 106.374,-180.104 103.305,-190.245 110.299,-189.945"/>
</g>
<!-- lookupKeyReadWithFlags -->
<g id="node12" class="node"><title>lookupKeyReadWithFlags</title>
<ellipse fill="none" stroke="black" cx="104.641" cy="-90" rx="104.782" ry="18"/>
<text text-anchor="middle" x="104.641" y="-86.3" font-family="Times,serif" font-size="14.00">lookupKeyReadWithFlags</text>
</g>
<!-- lookupKeyRead&#45;&gt;lookupKeyReadWithFlags -->
<g id="edge11" class="edge"><title>lookupKeyRead&#45;&gt;lookupKeyReadWithFlags</title>
<path fill="none" stroke="black" d="M105.394,-143.697C105.283,-135.983 105.151,-126.712 105.028,-118.112"/>
<polygon fill="black" stroke="black" points="108.528,-118.053 104.885,-108.104 101.528,-118.153 108.528,-118.053"/>
</g>
<!-- lookupKey -->
<g id="node13" class="node"><title>lookupKey</title>
<ellipse fill="none" stroke="black" cx="104.641" cy="-18" rx="50.0912" ry="18"/>
<text text-anchor="middle" x="104.641" y="-14.3" font-family="Times,serif" font-size="14.00">lookupKey</text>
</g>
<!-- lookupKeyReadWithFlags&#45;&gt;lookupKey -->
<g id="edge12" class="edge"><title>lookupKeyReadWithFlags&#45;&gt;lookupKey</title>
<path fill="none" stroke="black" d="M104.641,-71.6966C104.641,-63.9827 104.641,-54.7125 104.641,-46.1124"/>
<polygon fill="black" stroke="black" points="108.141,-46.1043 104.641,-36.1043 101.141,-46.1044 108.141,-46.1043"/>
</g>
<!-- addReplyBulkLen -->
<g id="node15" class="node"><title>addReplyBulkLen</title>
<ellipse fill="none" stroke="black" cx="295.641" cy="-162" rx="75.2868" ry="18"/>
<text text-anchor="middle" x="295.641" y="-158.3" font-family="Times,serif" font-size="14.00">addReplyBulkLen</text>
</g>
<!-- addReplyBulk&#45;&gt;addReplyBulkLen -->
<g id="edge14" class="edge"><title>addReplyBulk&#45;&gt;addReplyBulkLen</title>
<path fill="none" stroke="black" d="M294.135,-215.697C294.355,-207.983 294.62,-198.712 294.866,-190.112"/>
<polygon fill="black" stroke="black" points="298.365,-190.2 295.152,-180.104 291.368,-190 298.365,-190.2"/>
</g>
<!-- memcpy_to_buf -->
<g id="node16" class="node"><title>memcpy_to_buf</title>
<ellipse fill="none" stroke="black" cx="296.641" cy="-90" rx="69.5877" ry="18"/>
<text text-anchor="middle" x="296.641" y="-86.3" font-family="Times,serif" font-size="14.00">memcpy_to_buf</text>
</g>
<!-- addReplyBulkLen&#45;&gt;memcpy_to_buf -->
<g id="edge15" class="edge"><title>addReplyBulkLen&#45;&gt;memcpy_to_buf</title>
<path fill="none" stroke="black" d="M295.888,-143.697C295.998,-135.983 296.131,-126.712 296.253,-118.112"/>
<polygon fill="black" stroke="black" points="299.753,-118.153 296.396,-108.104 292.754,-118.053 299.753,-118.153"/>
</g>
<!-- handleClientsWithPendingWrites -->
<g id="node18" class="node"><title>handleClientsWithPendingWrites</title>
<ellipse fill="none" stroke="black" cx="434.641" cy="-666" rx="129.977" ry="18"/>
<text text-anchor="middle" x="434.641" y="-662.3" font-family="Times,serif" font-size="14.00">handleClientsWithPendingWrites</text>
</g>
<!-- beforeSleep&#45;&gt;handleClientsWithPendingWrites -->
<g id="edge17" class="edge"><title>beforeSleep&#45;&gt;handleClientsWithPendingWrites</title>
<path fill="none" stroke="black" d="M415.693,-720.055C418.506,-712.176 421.921,-702.617 425.071,-693.794"/>
<polygon fill="black" stroke="black" points="428.404,-694.87 428.471,-684.275 421.811,-692.516 428.404,-694.87"/>
</g>
<!-- writeToClient -->
<g id="node19" class="node"><title>writeToClient</title>
<ellipse fill="none" stroke="black" cx="434.641" cy="-594" rx="59.5901" ry="18"/>
<text text-anchor="middle" x="434.641" y="-590.3" font-family="Times,serif" font-size="14.00">writeToClient</text>
</g>
<!-- handleClientsWithPendingWrites&#45;&gt;writeToClient -->
<g id="edge18" class="edge"><title>handleClientsWithPendingWrites&#45;&gt;writeToClient</title>
<path fill="none" stroke="black" d="M434.641,-647.697C434.641,-639.983 434.641,-630.712 434.641,-622.112"/>
<polygon fill="black" stroke="black" points="438.141,-622.104 434.641,-612.104 431.141,-622.104 438.141,-622.104"/>
</g>
<!-- write -->
<g id="node20" class="node"><title>write</title>
<ellipse fill="none" stroke="black" cx="434.641" cy="-522" rx="28.6953" ry="18"/>
<text text-anchor="middle" x="434.641" y="-518.3" font-family="Times,serif" font-size="14.00">write</text>
</g>
<!-- writeToClient&#45;&gt;write -->
<g id="edge19" class="edge"><title>writeToClient&#45;&gt;write</title>
<path fill="none" stroke="black" d="M434.641,-575.697C434.641,-567.983 434.641,-558.712 434.641,-550.112"/>
<polygon fill="black" stroke="black" points="438.141,-550.104 434.641,-540.104 431.141,-550.104 438.141,-550.104"/>
</g>
</g>
</svg>
